<svg width="75" height="16" viewBox="0 0 75 16" fill="none" xmlns="http://www.w3.org/2000/svg">
<path d="M15.4303 9.92866C14.3896 14.1255 10.1436 16.6839 5.94652 15.6432C1.74965 14.6026 -0.808738 10.3564 0.232023 6.15951C1.27278 1.96246 5.5188 -0.596103 9.71567 0.444658C9.72272 0.44642 9.72994 0.448181 9.73699 0.450119C13.9228 1.50057 16.4693 5.73989 15.4303 9.92866V9.92866Z" fill="#576081"/>
<path d="M9.6083 6.90508C9.36361 7.88383 7.87117 7.38212 7.38673 7.26233L7.8148 5.54969C8.29185 5.66719 9.85299 5.89215 9.6009 6.90508H9.6083V6.90508ZM9.34159 9.67257C9.07735 10.7391 7.28156 10.1619 6.69917 10.0173L7.17128 8.12605C7.75367 8.27279 9.61799 8.55906 9.34159 9.67257ZM11.2989 6.91988C11.4531 5.87753 10.6603 5.31734 9.58628 4.94546L9.9386 3.5337L9.07013 3.31843L8.72767 4.69355C8.50254 4.63735 8.27018 4.58345 8.04011 4.53201L8.38257 3.14227L7.52378 2.927L7.17146 4.33876L6.62342 4.2165L5.4368 3.92038L5.2092 4.838C5.2092 4.838 5.84532 4.98474 5.83316 4.99461C6.07609 5.02403 6.25331 5.23982 6.23446 5.48398L5.83316 7.09146C5.86329 7.09833 5.89288 7.10802 5.92124 7.12088L5.8307 7.09639L5.27033 9.34984C5.21783 9.51473 5.04167 9.60546 4.87661 9.55296H4.87643C4.87643 9.56511 4.25 9.39882 4.25 9.39882L3.82422 10.3776L4.94232 10.6541L5.55395 10.8132L5.19916 12.2396L6.05794 12.4549L6.41027 11.0431C6.64174 11.1067 6.86952 11.1654 7.09289 11.2193L6.7455 12.636L7.60429 12.8488L7.95908 11.4248C9.42703 11.7016 10.5256 11.5911 10.9905 10.2652C11.3648 9.19835 10.9709 8.58425 10.2002 8.18295C10.7629 8.0533 11.179 7.69358 11.2987 6.9204L11.2989 6.91988Z" fill="#101020"/>
<path d="M20.3867 13.4192C20.844 13.4206 21.294 13.3042 21.6933 13.0815C22.1043 12.8624 22.4658 12.5606 22.7552 12.1958C23.0568 11.81 23.2939 11.3778 23.4574 10.9161C23.6299 10.4391 23.7174 9.93579 23.7167 9.42862C23.7442 8.91405 23.6343 8.40142 23.3986 7.9434C23.1882 7.58861 22.7966 7.4077 22.229 7.4077C21.9817 7.41615 21.7358 7.4498 21.495 7.50793C21.196 7.5747 20.9194 7.71809 20.6924 7.92385L19.3956 13.3457L19.6037 13.3849C19.6655 13.4 19.7288 13.4099 19.792 13.4143C19.8732 13.4243 19.955 13.4284 20.0367 13.4264L20.3865 13.419L20.3867 13.4192ZM22.9631 4.9439C23.5294 4.93087 24.0918 5.04643 24.6072 5.2816C25.0546 5.49494 25.4478 5.80692 25.7572 6.1943C26.0739 6.59489 26.3068 7.05484 26.4423 7.54722C26.5906 8.09014 26.6637 8.65069 26.66 9.21353C26.6593 10.9646 25.9806 12.6471 24.7663 13.9088C24.1775 14.5126 23.4771 14.996 22.7038 15.3327C21.8929 15.6896 21.0158 15.8715 20.1299 15.8661H19.5035C19.1629 15.855 18.8229 15.8257 18.4856 15.778C18.0736 15.7183 17.6652 15.6367 17.2623 15.5333C16.8399 15.4331 16.4298 15.287 16.0391 15.0978L19.4767 0.696652L22.5473 0.207275L21.3241 5.31842C21.5788 5.20321 21.8432 5.11073 22.1143 5.04202C22.3937 4.97403 22.6807 4.9402 22.9682 4.94179L22.9633 4.94425L22.9631 4.9439Z" fill="#576081"/>
<path d="M31.257 3.89408C30.8568 3.89795 30.4666 3.76971 30.1461 3.5296C29.8065 3.26095 29.6229 2.84081 29.6567 2.40904C29.6553 2.13969 29.7128 1.87315 29.8255 1.62847C29.9335 1.39012 30.0852 1.17432 30.2733 0.992347C30.4613 0.813719 30.679 0.669619 30.9168 0.566565C31.1642 0.46034 31.4307 0.406258 31.6997 0.407491C32.0971 0.406258 32.4836 0.535208 32.8007 0.774435C33.1396 1.04361 33.323 1.4634 33.2901 1.895C33.2922 2.16505 33.2355 2.43229 33.1238 2.67786C33.0158 2.91497 32.8648 3.12971 32.6784 3.31151C32.491 3.49084 32.2733 3.63494 32.0349 3.73729C31.7876 3.84352 31.5211 3.8969 31.2521 3.8939H31.257V3.89408ZM29.8306 15.587H26.8945L29.3754 5.16385H32.3286L29.8304 15.587H29.8306Z" fill="#576081"/>
<path d="M34.899 2.5676L37.9695 2.09302L37.2062 5.16369H40.4947L39.9023 7.58097H36.6409L35.7699 11.2168C35.6945 11.4951 35.6478 11.7805 35.6304 12.0685C35.6124 12.3014 35.647 12.5353 35.7306 12.7532C35.8125 12.9488 35.9642 13.1068 36.1564 13.1961C36.433 13.3184 36.7349 13.374 37.0372 13.3577C37.3469 13.3587 37.6559 13.3282 37.9596 13.2671C38.2652 13.2074 38.5663 13.1257 38.86 13.0224L39.0802 15.2831C38.6586 15.4346 38.2279 15.5599 37.7907 15.6574C37.2504 15.7721 36.6988 15.8255 36.1465 15.8165C35.2339 15.8165 34.5292 15.6795 34.0252 15.4103C33.5538 15.1705 33.1761 14.7795 32.9536 14.2994C32.7364 13.7901 32.6416 13.237 32.6772 12.6845C32.7102 12.0364 32.8027 11.3928 32.9536 10.7614L34.8988 2.55773V2.5676H34.899Z" fill="#576081"/>
<path d="M40.3864 11.4254C40.3803 10.5608 40.5275 9.70152 40.8219 8.88835C41.098 8.11941 41.522 7.41212 42.0697 6.8063C42.6219 6.20542 43.2935 5.72714 44.0416 5.40159C44.8576 5.04927 45.7389 4.87328 46.6277 4.88562C47.1642 4.87927 47.6998 4.93582 48.223 5.0542C48.6628 5.15849 49.0907 5.3077 49.5001 5.49954L48.48 7.7921C48.2158 7.68447 47.9416 7.59181 47.6579 7.50584C47.3194 7.41159 46.9691 7.36791 46.618 7.37619C45.7308 7.34412 44.8775 7.71917 44.3009 8.39405C43.7284 9.06751 43.4411 9.9728 43.4397 11.1099C43.4127 11.6867 43.5649 12.2574 43.8751 12.7445C44.1653 13.1604 44.7006 13.3681 45.4801 13.3681C45.8538 13.3685 46.2262 13.3283 46.591 13.2483C46.9164 13.1789 47.2352 13.0799 47.5428 12.9522L47.7606 15.311C47.3603 15.4625 46.952 15.5916 46.5373 15.6973C46.0107 15.8161 45.472 15.8721 44.9323 15.864C44.2158 15.8848 43.5027 15.7641 42.833 15.509C42.3006 15.2945 41.8213 14.9664 41.4286 14.5477C41.056 14.1418 40.7807 13.6563 40.6237 13.1284C40.4576 12.5728 40.3752 11.9955 40.379 11.4157L40.3864 11.4256V11.4254Z" fill="#576081"/>
<path d="M54.8742 7.38512C54.4603 7.3793 54.0556 7.5109 53.7242 7.75946C53.3883 8.01947 53.1065 8.34308 52.8949 8.71126C52.6622 9.10322 52.4874 9.52706 52.3763 9.96923C52.2686 10.3931 52.2126 10.8282 52.21 11.2656C52.1835 11.7995 52.2922 12.3312 52.5257 12.8119C52.7386 13.1814 53.1202 13.3674 53.6756 13.3674C54.0903 13.3744 54.4955 13.2418 54.8256 12.9906C55.1623 12.7306 55.4446 12.4069 55.6574 12.0391C55.8868 11.6466 56.0573 11.223 56.1641 10.7812C56.2705 10.3564 56.3265 9.92026 56.3302 9.48197C56.3577 8.94837 56.2486 8.41619 56.0145 7.93562C55.8017 7.56868 55.4175 7.38265 54.8645 7.38265L54.8744 7.38512H54.8742ZM53.4063 15.8653C52.7828 15.8798 52.1629 15.7716 51.5811 15.5472C51.0915 15.3541 50.6543 15.0494 50.3039 14.6565C49.9593 14.2609 49.6998 13.7988 49.5406 13.2987C49.3676 12.738 49.2848 12.1531 49.2959 11.5665C49.2978 10.7586 49.4273 9.95584 49.6803 9.1883C49.9257 8.41584 50.3088 7.6941 50.8104 7.05728C51.3142 6.42063 51.9408 5.89145 52.6527 5.50125C53.419 5.08921 54.2783 4.88098 55.1483 4.89684C55.7681 4.88556 56.3846 4.99373 56.9639 5.21499C57.4539 5.40489 57.8936 5.7056 58.2482 6.09333C58.5907 6.49004 58.8497 6.95194 59.0093 7.45118C59.1835 8.01243 59.2661 8.59816 59.254 9.18584C59.2515 9.99301 59.1252 10.7952 58.8796 11.564C58.6384 12.3375 58.2623 13.0621 57.7687 13.7049C57.2723 14.3442 56.6482 14.8734 55.9361 15.2586C55.158 15.6728 54.2876 15.8817 53.4063 15.8653V15.8653Z" fill="#576081"/>
<path d="M63.8911 3.89364C63.4915 3.89787 63.1017 3.76962 62.7828 3.52916C62.443 3.26051 62.2595 2.84037 62.2935 2.4086C62.2921 2.13925 62.3495 1.87272 62.462 1.62803C62.567 1.39091 62.7145 1.17547 62.8975 0.991908C63.0867 0.813809 63.3052 0.669709 63.5435 0.566126C63.7901 0.460077 64.0558 0.405996 64.3242 0.407053C64.7245 0.403529 65.1154 0.532832 65.4351 0.773997C65.7741 1.04317 65.9573 1.46296 65.9245 1.89456C65.925 2.16497 65.8665 2.4322 65.7529 2.67742C65.6469 2.91471 65.4964 3.1298 65.3102 3.31107C65.1228 3.49041 64.9051 3.63451 64.6667 3.73685C64.4215 3.84202 64.1576 3.8954 63.8909 3.89346L63.8911 3.89364ZM62.4673 15.5865H59.5312L62.0074 5.16341H64.963L62.4673 15.5865Z" fill="#576081"/>
<path d="M67.0762 5.63817C67.2988 5.57457 67.546 5.49618 67.8102 5.41074C68.0745 5.32513 68.3827 5.24674 68.7226 5.16605C69.0955 5.08696 69.472 5.02742 69.8507 4.98743C70.3212 4.93775 70.7942 4.91397 71.2674 4.91643C72.8137 4.91643 73.8804 5.36565 74.4677 6.2646C74.8193 6.80295 74.9973 7.45968 75.0015 8.23496V8.29081C74.9988 8.79498 74.9236 9.34865 74.776 9.95165L73.4278 15.579H70.4821L71.7909 10.0688C71.8692 9.72652 71.9329 9.39375 71.9794 9.06838C72.0303 8.7867 72.0303 8.49832 71.9794 8.21699C71.9308 7.98182 71.8008 7.77148 71.6125 7.62245C71.3514 7.45122 71.0407 7.37124 70.7292 7.39485C70.3371 7.39555 69.946 7.43572 69.5621 7.51481L67.639 15.5888H64.6758L67.0762 5.63817V5.63817Z" fill="#576081"/>
</svg>
