<svg width="79" height="22" viewBox="0 0 79 22" fill="none" xmlns="http://www.w3.org/2000/svg">
<path d="M22.5508 3.24168H26.116C27.0219 3.24168 27.6843 3.48551 28.1129 3.90492C28.5318 4.2658 28.7169 4.75348 28.7169 5.23141C28.7169 5.41673 28.7169 5.65081 28.6584 5.83613C28.5415 6.13849 28.3565 6.44085 28.1129 6.68469C27.996 6.80174 27.8694 6.87001 27.7525 6.92853C28.1714 7.04558 28.5415 7.28942 28.8435 7.59178C29.087 7.89414 29.2039 8.25502 29.2039 8.80122C29.2039 9.10359 29.1455 9.46447 29.0189 9.70831C28.902 9.95215 28.6584 10.196 28.4149 10.3716C28.1129 10.5569 27.811 10.6739 27.509 10.791C27.1486 10.908 26.72 10.908 26.3011 10.908H22.6092V3.22217H22.5508V3.24168ZM25.814 6.38233C26.116 6.38233 26.418 6.32381 26.72 6.19701C26.9635 6.07997 27.0804 5.83613 27.0804 5.59229C27.0804 5.34845 26.9635 5.10461 26.7784 4.98757C26.5349 4.80225 26.2329 4.74373 25.9309 4.80225H24.236V6.4311H25.8043V6.38233H25.814ZM26.2329 9.47422C26.5349 9.47422 26.8369 9.4157 27.1388 9.2889C27.3824 9.17186 27.4992 8.92802 27.4408 8.62566C27.4408 8.38182 27.3239 8.13798 27.1388 8.02094C26.9537 7.90389 26.5933 7.7771 26.1745 7.7771H24.1775V9.47422H26.2329Z" fill="#576081"/>
<path d="M31.3086 3.24219H33.0035V10.9865H31.3086V3.24219Z" fill="#576081"/>
<path d="M35.6016 3.24219H37.1699L40.7936 8.02145V3.24219H42.4788V10.9865H41.0371L37.2283 6.08048V10.9865H35.6016V3.24219Z" fill="#576081"/>
<path d="M47.6225 3.18506H49.1908L52.5125 10.9879H50.7591L50.0383 9.23229H46.775L46.0542 10.9879H44.3008L47.6225 3.18506ZM49.4343 7.779L48.4115 5.24307L47.3887 7.779H49.4343Z" fill="#576081"/>
<path d="M54.3242 3.24219H55.8925L59.5162 8.02145V3.24219H61.2112V10.9865H59.7597L56.0094 6.08048V10.9865H54.3242V3.24219Z" fill="#576081"/>
<path d="M67.3708 11.1054C66.8253 11.1054 66.2798 10.9884 65.8025 10.803C64.8381 10.3836 64.1076 9.65211 63.6887 8.6865C63.5036 8.19882 63.3867 7.66237 63.3867 7.11617C63.3867 6.09204 63.8056 5.05817 64.5362 4.27788C64.8966 3.917 65.3252 3.61463 65.8025 3.42932C66.348 3.18548 66.8935 3.12695 67.4293 3.12695C67.7312 3.12695 68.0917 3.12695 68.3936 3.18548C68.6956 3.244 68.9391 3.30252 69.1827 3.42932C69.4262 3.54636 69.6697 3.67316 69.8451 3.7902C70.0301 3.90724 70.2639 4.09256 70.449 4.27788L69.4262 5.54585C69.1242 5.30201 68.8222 5.05816 68.5203 4.8826C68.2183 4.70704 67.8579 4.63876 67.4975 4.63876C67.1955 4.63876 66.8935 4.69728 66.5915 4.82408C66.2896 4.94112 66.046 5.12644 65.8707 5.37028C65.6954 5.61412 65.5103 5.85796 65.3836 6.16032C65.2667 6.46268 65.1986 6.76504 65.1986 7.0674C65.1986 7.36977 65.257 7.73065 65.3836 8.03301C65.5103 8.33537 65.6272 8.57921 65.8707 8.82305C66.2896 9.31073 66.8935 9.54482 67.4975 9.54482C67.8579 9.54482 68.2865 9.4863 68.6469 9.30098C68.9489 9.11566 69.3093 8.88157 69.5528 8.63773L70.6341 9.72038C70.449 9.9057 70.2152 10.1398 70.0301 10.3251C69.7866 10.5104 69.5431 10.6275 69.3093 10.7445C69.0658 10.8616 68.7638 10.9884 68.4618 11.0469C68.0332 11.1054 67.6728 11.1054 67.3708 11.1054Z" fill="#576081"/>
<path d="M72.5703 3.24219H78.3663V4.75399H74.1971V6.32432H77.8792V7.83613H74.1971V9.47473H78.4247V10.9865H72.5703V3.24219Z" fill="#576081"/>
<path d="M24.7208 18.6054C24.3019 18.6054 23.8733 18.5469 23.5129 18.3616C23.1525 18.2446 22.792 18.0007 22.4219 17.6983L23.0258 17.0351C23.2693 17.2789 23.5129 17.396 23.8148 17.5813C24.1168 17.6984 24.4188 17.7666 24.7208 17.7666C24.9643 17.7666 25.2078 17.7081 25.4416 17.5813C25.6267 17.4643 25.6851 17.2789 25.6851 17.0936C25.6851 17.0351 25.6851 16.9083 25.6267 16.8498C25.5682 16.7913 25.5098 16.6645 25.4416 16.6059C25.3247 16.5474 25.1981 16.4889 25.0812 16.4206C24.8961 16.3621 24.6623 16.3036 24.4772 16.2353C24.2337 16.1768 23.9317 16.1183 23.6882 15.9915C23.5031 15.9329 23.2693 15.8062 23.1427 15.6891C23.0258 15.5721 22.8992 15.4453 22.7823 15.2697C22.6654 15.0259 22.6654 14.782 22.6654 14.6065C22.6654 14.3626 22.7238 14.1871 22.7823 13.9432C22.8407 13.7579 23.0258 13.5823 23.1427 13.4555C23.3278 13.3385 23.5031 13.2117 23.7467 13.1532C23.9902 13.0947 24.2337 13.0361 24.4675 13.0361C24.8279 13.0361 25.1883 13.0947 25.5585 13.2215C25.8605 13.3385 26.1624 13.5238 26.4644 13.7091L25.9774 14.4309C25.7338 14.2456 25.4903 14.1285 25.2565 14.0115C25.013 13.8944 24.7695 13.8944 24.5357 13.8944C24.2922 13.8944 24.0486 13.953 23.8733 14.0798C23.7564 14.1968 23.6298 14.3821 23.6298 14.5674C23.6298 14.6845 23.6298 14.7528 23.6882 14.8698C23.7467 14.9283 23.8051 15.0551 23.8733 15.1136C23.9902 15.1722 24.1168 15.2307 24.2922 15.299C24.4772 15.3575 24.6526 15.416 24.9546 15.4843C25.1981 15.5428 25.4416 15.6013 25.7436 15.7281C25.9287 15.7866 26.104 15.9134 26.2891 16.0305C26.406 16.1475 26.5326 16.3328 26.5911 16.4499C26.6495 16.6352 26.7079 16.8108 26.7079 17.0546C26.7079 17.2985 26.6495 17.5423 26.5911 17.7179C26.4742 17.9032 26.3475 18.0787 26.1722 18.2641C25.9871 18.3811 25.8118 18.5079 25.5682 18.5664C25.2663 18.5469 24.9643 18.6054 24.7208 18.6054Z" fill="#576081"/>
<path d="M27.7402 13.1045H28.7728L30.3995 15.6404L32.0945 13.1045H33.1173V18.547H32.1529V14.6163L30.458 17.1522H30.3995L28.7143 14.6163V18.547H27.7402V13.1045Z" fill="#576081"/>
<path d="M36.3828 13.0454H37.2887L39.646 18.4879H38.6232L38.0777 17.1614H35.545L34.9995 18.4879H34.0352L36.3828 13.0454ZM37.7757 16.3714L36.8114 14.1963L35.9054 16.3714H37.7757Z" fill="#576081"/>
<path d="M40.6112 13.1035H43.027C43.3289 13.1035 43.6309 13.162 43.9329 13.2206C44.1764 13.2791 44.4199 13.4644 44.5953 13.64C44.7122 13.757 44.8388 13.9423 44.9557 14.1862C45.0141 14.3715 45.0726 14.6056 45.0726 14.8494C45.0726 15.0347 45.0141 15.2688 44.9557 15.4541C44.8973 15.6394 44.7706 15.7565 44.7122 15.9418C44.5953 16.0589 44.4686 16.1857 44.2933 16.3027C44.1082 16.4197 43.9329 16.488 43.7478 16.5465L45.1992 18.6045H44.0498L42.725 16.7319H41.5171V18.6045H40.5527L40.6112 13.1035ZM42.9685 15.7662C43.2705 15.7662 43.5725 15.7077 43.7575 15.5224C43.9426 15.3371 44.0595 15.103 44.0595 14.8592C44.0595 14.6153 43.9426 14.3715 43.7575 14.1959C43.514 14.0106 43.212 13.9521 42.9101 13.9521H41.5171V15.7662H42.9685Z" fill="#576081"/>
<path d="M47.5561 13.9531H45.8027V13.1045H50.2154V13.9531H48.4621V18.547H47.4977L47.5561 13.9531Z" fill="#576081"/>
<path d="M56.0782 18.6049C55.7177 18.6049 55.3573 18.5463 54.9872 18.361C54.3248 18.0587 53.7793 17.571 53.5357 16.9077C53.4189 16.5469 53.2922 16.186 53.3507 15.8153C53.3507 15.4545 53.4091 15.0936 53.5357 14.7229C53.7793 14.0597 54.3248 13.5135 54.9872 13.2111C55.3476 13.0941 55.708 12.9673 56.1366 12.9673C56.3801 12.9673 56.6237 12.9673 56.799 13.0258C56.9841 13.0843 57.1594 13.1428 57.3445 13.2111C57.5296 13.2696 57.6465 13.3964 57.8316 13.455C57.9485 13.572 58.1335 13.6988 58.2504 13.8158L57.6465 14.5376C57.4614 14.3523 57.2276 14.1767 56.9841 14.0499C56.7406 13.9329 56.4386 13.8646 56.1366 13.8646C55.8931 13.8646 55.6496 13.9231 55.4158 13.9817C55.1722 14.0987 54.9969 14.2255 54.8118 14.4011C54.6267 14.5864 54.5099 14.7619 54.4514 15.0058C54.393 15.2496 54.3345 15.4935 54.3345 15.7276C54.3345 15.9714 54.393 16.2152 54.4514 16.4493C54.5099 16.6834 54.6365 16.8687 54.8118 17.054C54.9969 17.2394 55.1722 17.3564 55.4158 17.4734C55.6593 17.5905 55.9028 17.6588 56.1366 17.5905C56.4386 17.5905 56.7406 17.532 56.9841 17.4052C57.2276 17.2881 57.4711 17.1028 57.7049 16.859L58.3089 17.4637C58.192 17.5807 58.0069 17.7661 57.89 17.8831C57.7049 18.0001 57.588 18.1269 57.403 18.1855C57.2179 18.244 57.0425 18.3708 56.799 18.3708C56.5555 18.6049 56.3119 18.6049 56.0782 18.6049Z" fill="#576081"/>
<path d="M59.2734 13.1045H60.1794V15.3381H62.7802V13.1045H63.7446V18.547H62.7802V16.2451H60.1794V18.547H59.2734V13.1045Z" fill="#576081"/>
<path d="M67.0644 13.0454H67.9703L70.3277 18.4879H69.3048L68.7593 17.1614H66.2267L65.6812 18.4879H64.7168L67.0644 13.0454ZM68.3989 16.3714L67.493 14.1963L66.5871 16.3714H68.3989Z" fill="#576081"/>
<path d="M71.291 13.1045H72.2651V18.547H71.291V13.1045Z" fill="#576081"/>
<path d="M73.709 13.1045H74.5565L77.4593 16.8499V13.1045H78.4237V18.547H77.6346L74.6831 14.6748V18.547H73.709V13.1045Z" fill="#576081"/>
<path d="M11.9215 18.1855V20.5458L9.86614 21.7553L7.86922 20.5458V18.1855L9.86614 19.3949L11.9215 18.1855ZM0.923828 10.0217L2.92075 11.2312V15.2789L6.35935 17.3369V19.6973L0.923828 16.4883V10.0217V10.0217ZM18.8084 10.0217V16.4981L13.3145 19.707V17.3467L16.7531 15.2887V11.2409L18.8084 10.0217ZM13.3047 6.81278L15.3601 8.02223V10.3826L11.9215 12.4406V16.5469L9.92458 17.7563L7.9374 16.5469V12.4308L4.37217 10.3728V8.01247L6.42754 6.80303L9.86614 8.86104L13.3047 6.81278ZM4.37217 12.07L6.36909 13.2794V15.6398L4.37217 14.4303V12.07ZM15.3601 12.07V14.4303L13.3632 15.6398V13.2794L15.3601 12.07ZM2.92075 4.75477L4.97612 5.96422L2.92075 7.17366V9.53403L0.923828 8.32459V5.96422L2.92075 4.75477ZM16.8115 4.75477L18.8669 5.96422V8.32459L16.8115 9.53403V7.17366L14.8146 5.96422L16.8115 4.75477ZM9.86614 4.75477L11.9215 5.96422L9.86614 7.17366L7.86922 5.96422L9.86614 4.75477ZM9.86614 0.707031L15.3601 3.91596L13.3632 5.12541L9.92458 3.0674L6.4178 5.12541L4.42088 3.91596L9.86614 0.707031Z" fill="#576081"/>
</svg>
