<svg width="74" height="23" viewBox="0 0 74 23" fill="none" xmlns="http://www.w3.org/2000/svg">
<path d="M29.9398 9.44385H28.7188V17.4504H29.9398V9.44385Z" fill="#576081"/>
<path d="M35.4093 6.05273H25.457V7.27898H35.4093V6.05273Z" fill="#576081"/>
<path d="M32.1487 9.44385H30.9277V17.4504H32.1487V9.44385Z" fill="#576081"/>
<path d="M65.8789 17.4583H67.1109V12.6361L65.8789 11.2607V17.4583Z" fill="#576081"/>
<path d="M72.3651 6.05274V14.9928L63.6504 5.26562V17.4591H64.8796V8.51629L73.5999 18.2462V6.05274H72.3651Z" fill="#576081"/>
<path d="M55.6729 6.04785C52.5406 6.04785 49.9941 8.6053 49.9941 11.751C49.9941 14.8967 52.5406 17.4542 55.6729 17.4542C58.8051 17.4542 61.3516 14.8967 61.3516 11.751C61.3516 8.60806 58.8051 6.04785 55.6729 6.04785ZM55.6729 16.2252C53.2171 16.2252 51.2179 14.2201 51.2179 11.751C51.2179 9.28194 53.2144 7.27686 55.6729 7.27686C58.1286 7.27686 60.1279 9.28194 60.1279 11.751C60.1279 14.2173 58.1286 16.2252 55.6729 16.2252Z" fill="#576081"/>
<path d="M55.6723 10.9307C55.2213 10.9307 54.8555 11.298 54.8555 11.751C54.8555 12.204 55.2213 12.5714 55.6723 12.5714C56.1234 12.5714 56.4892 12.204 56.4892 11.751C56.4892 11.298 56.1234 10.9307 55.6723 10.9307Z" fill="#576081"/>
<path d="M47.8565 9.55213C47.8565 7.62438 46.3055 6.05566 44.3998 6.05566H37.9043V17.462H39.117V7.29296H44.3998C45.6235 7.29296 46.619 8.30655 46.619 9.55213C46.619 10.7922 45.6373 11.8003 44.4245 11.8141L40.1153 11.8113V17.462H41.328V13.0486H44.1688L46.4898 17.4592H47.9005L45.4778 12.8746C46.8775 12.4079 47.8565 11.049 47.8565 9.55213Z" fill="#576081"/>
<path d="M17.0632 3.79366L0.513672 0.736328L9.22292 22.7425L21.3559 7.89497L17.0632 3.79366ZM16.7992 5.14143L19.3319 7.55802L12.4074 8.81741L16.7992 5.14143ZM10.9032 8.56609L3.60467 2.48732L15.5314 4.69125L10.9032 8.56609ZM10.3807 9.6432L9.19267 19.5222L2.77692 3.30482L10.3807 9.6432ZM11.4807 10.1652L19.1477 8.77046L10.3559 19.5305L11.4807 10.1652Z" fill="#576081"/>
</svg>
