<svg width="81" height="24" viewBox="0 0 81 24" fill="none" xmlns="http://www.w3.org/2000/svg">
<path d="M31.7124 7.03608V9.68813H34.2483V11.6736H31.6844V15.7013C31.6844 16.5948 32.1748 17.0203 32.8753 17.0203C33.2256 17.0203 33.6459 16.9068 33.9821 16.7366L34.6126 18.7079C33.9541 18.9774 33.4217 19.0908 32.7212 19.105C30.7177 19.1759 29.4147 18.0272 29.4147 15.7013V11.6736H27.6914V9.68813H29.4147V7.27718L31.7124 7.03608ZM75.5513 9.56049L75.7194 10.6383C76.4339 9.48958 77.3867 9.3194 78.3113 9.3194C79.2641 9.3194 80.1747 9.70231 80.6791 10.2129L79.6564 12.2125C79.194 11.8154 78.7597 11.6027 78.0171 11.6027C76.8262 11.6027 75.7194 12.2409 75.7194 13.9711V18.8923H73.4357V9.56049H75.5513ZM69.9611 13.1344C69.807 11.9289 68.8823 11.3191 67.5653 11.3191C66.3324 11.3191 65.3236 11.9289 64.9874 13.1344H69.9611ZM64.9593 15.049C65.1135 16.1977 66.0942 17.0344 67.7054 17.0344C68.546 17.0344 69.6529 16.7083 70.1713 16.1693L71.6283 17.6301C70.6616 18.6512 69.0644 19.1476 67.6634 19.1476C64.483 19.1476 62.5916 17.1621 62.5916 14.1697C62.5916 11.3333 64.497 9.29103 67.4952 9.29103C70.5776 9.29103 72.511 11.2198 72.1467 15.0631H64.9593V15.049ZM54.8998 5.64624V10.8227C55.7264 9.74486 56.7352 9.41867 57.772 9.41867C60.3919 9.41867 61.5408 11.2198 61.5408 13.9569V18.8781H59.2571V13.9853C59.2571 12.2835 58.3744 11.5602 57.1695 11.5602C55.8245 11.5602 54.8858 12.7089 54.8858 14.1129V18.8781H52.6021V5.64624H54.8998ZM48.8473 6.92263V9.57467H51.3832V11.5602H48.8192V15.5879C48.8192 16.4813 49.3096 16.9068 50.0101 16.9068C50.3604 16.9068 50.7807 16.7934 51.117 16.6232L51.7474 18.5945C51.0889 18.8639 50.5565 18.9774 49.856 18.9916C47.8525 19.0625 46.5495 17.9137 46.5495 15.5879V11.5602H44.8263V9.57467H46.5495V7.1779L48.8473 6.92263ZM42.5425 13.1344C42.3884 11.9289 41.4637 11.3191 40.1467 11.3191C38.9138 11.3191 37.9051 11.9289 37.5688 13.1344H42.5425ZM37.5408 15.049C37.6949 16.1977 38.6756 17.0344 40.2868 17.0344C41.1275 17.0344 42.2343 16.7083 42.7527 16.1693L44.2098 17.6301C43.2431 18.6512 41.6459 19.1476 40.2448 19.1476C37.0644 19.1476 35.173 17.1621 35.173 14.1697C35.173 11.3333 37.0784 9.29103 40.0627 9.29103C43.145 9.29103 45.0644 11.2198 44.7142 15.0631H37.5408V15.049Z" fill="#576081"/>
<path fill-rule="evenodd" clip-rule="evenodd" d="M23.2168 11.957C23.2168 18.1702 18.1722 23.207 11.9492 23.207C5.72632 23.207 0.681641 18.1702 0.681641 11.957C0.681641 5.74383 5.72632 0.707031 11.9492 0.707031C18.1722 0.707031 23.2168 5.74383 23.2168 11.957ZM13.0519 13.0034C13.1023 13.0012 13.1346 12.9998 13.1507 12.9998C15.8914 12.8694 17.9507 12.3916 17.9507 11.827C17.9507 11.2478 15.8914 10.77 13.1507 10.6542V12.522C13.0637 12.5364 12.6431 12.5654 11.7875 12.5654C11.077 12.5654 10.5549 12.5364 10.3809 12.522V10.6542C7.64014 10.77 5.58094 11.2478 5.58094 11.827C5.58094 12.4061 7.62564 12.8839 10.3809 12.9998C10.5549 13.0142 11.0625 13.0287 11.773 13.0287C12.4733 13.0287 12.8744 13.0111 13.0519 13.0034ZM13.1507 8.78643V10.4515C16.2685 10.5963 18.6032 11.2189 18.6032 11.9573C18.6032 12.6957 16.2685 13.3038 13.1362 13.4341V18.7913H10.3664V13.4341C7.2631 13.2893 4.91388 12.6812 4.91388 11.9428C4.91388 11.2044 7.2486 10.5963 10.3664 10.4515V8.78643H6.53803V6.23817H16.9791V8.78643H13.1507Z" fill="#576081"/>
</svg>
