<svg width="88" height="22" viewBox="0 0 88 22" fill="none" xmlns="http://www.w3.org/2000/svg">
<path d="M25.6747 5.8779H26.3789C26.558 5.8779 26.7039 6.02373 26.7039 6.2029V12.5071C26.7039 14.4987 27.783 15.7571 29.7914 15.7571C31.7997 15.7571 32.8789 14.4987 32.8789 12.5071V6.2029C32.8789 6.02373 33.0247 5.8779 33.2039 5.8779H33.908C34.0872 5.8779 34.233 6.02373 34.233 6.2029V12.5237C34.233 15.2362 32.7455 16.9654 29.7914 16.9654C26.8372 16.9654 25.3497 15.2196 25.3497 12.5404V6.2029C25.3455 6.02373 25.4914 5.8779 25.6747 5.8779ZM36.308 14.4654C36.4122 14.3321 36.6122 14.3196 36.733 14.4362C37.4622 15.1446 38.5539 15.7571 39.9372 15.7571C41.8789 15.7571 42.4997 14.7112 42.4997 13.8779C42.4997 12.5696 41.1789 12.2112 39.7414 11.8196C37.9955 11.3612 36.0497 10.8737 36.0497 8.73206C36.0497 6.93623 37.6497 5.71123 39.7914 5.71123C41.3289 5.71123 42.5455 6.18206 43.4414 7.01123C43.5705 7.1279 43.583 7.3279 43.4705 7.46123L43.0455 7.98206C42.9414 8.11123 42.7497 8.11956 42.6289 8.00706C41.833 7.26123 40.783 6.91956 39.6914 6.91956C38.383 6.91956 37.4539 7.62373 37.4539 8.64873C37.4539 9.74456 38.7122 10.0696 40.0997 10.4446C41.8789 10.9196 43.9039 11.4737 43.9039 13.7612C43.9039 15.3446 42.8247 16.9612 39.8872 16.9612C38.1289 16.9612 36.8039 16.3404 35.9039 15.4404C35.7872 15.3237 35.7747 15.1362 35.8789 15.0071L36.308 14.4654ZM45.5164 6.2029C45.5164 6.02373 45.6622 5.8779 45.8414 5.8779H49.2372C52.6164 5.8779 54.8247 8.24456 54.8247 11.3321C54.8247 14.4362 52.6205 16.7696 49.2372 16.7696H45.8414C45.6622 16.7696 45.5164 16.6237 45.5164 16.4446V6.2029ZM49.2414 15.5612C51.8872 15.5612 53.4205 13.6654 53.4205 11.3321C53.4205 8.9779 51.933 7.08623 49.2414 7.08623H46.8747V15.5612H49.2414ZM68.3789 12.8196C68.3789 10.5321 69.883 8.68623 72.283 8.68623C74.683 8.68623 76.1872 10.5321 76.1872 12.8196C76.1872 15.1071 74.683 16.9696 72.283 16.9696C69.883 16.9696 68.3789 15.1029 68.3789 12.8196ZM74.8955 12.8196C74.8955 11.2196 73.9664 9.78206 72.283 9.78206C70.5997 9.78206 69.6539 11.2196 69.6539 12.8196C69.6539 14.4362 70.5997 15.8737 72.283 15.8737C73.9664 15.8737 74.8955 14.4362 74.8955 12.8196ZM77.3622 6.7279C77.3622 6.26956 77.7372 5.91123 78.1789 5.91123C78.6372 5.91123 79.0122 6.26956 79.0122 6.7279C79.0122 7.18623 78.6372 7.56123 78.1789 7.56123C77.7372 7.56123 77.3622 7.18206 77.3622 6.7279ZM77.8997 8.88206H78.4705C78.6497 8.88206 78.7955 9.0279 78.7955 9.20706V16.4446C78.7955 16.6237 78.6497 16.7696 78.4705 16.7696H77.8997C77.7205 16.7696 77.5747 16.6237 77.5747 16.4446V9.20706C77.5747 9.0279 77.7205 8.88206 77.8997 8.88206ZM85.8539 11.6112C85.8539 10.2237 85.1497 9.78206 84.0914 9.78206C83.1289 9.78206 82.2122 10.3696 81.7539 11.0071V16.4446C81.7539 16.6237 81.608 16.7696 81.4289 16.7696H80.858C80.6789 16.7696 80.533 16.6237 80.533 16.4446V9.20706C80.533 9.0279 80.6789 8.88206 80.858 8.88206H81.4289C81.608 8.88206 81.7539 9.0279 81.7539 9.20706V10.0237C82.308 9.36956 83.3872 8.68623 84.5622 8.68623C86.2122 8.68623 87.0789 9.51956 87.0789 11.2321V16.4404C87.0789 16.6196 86.933 16.7654 86.7539 16.7654H86.183C86.0039 16.7654 85.858 16.6196 85.858 16.4404L85.8539 11.6112ZM57.9205 11.3321C57.9205 7.98206 60.3872 5.69873 63.4747 5.69873C65.3039 5.69873 66.5872 6.49456 67.4539 7.58623C67.5622 7.72373 67.5247 7.9279 67.3705 8.0154L66.7622 8.3529C66.6247 8.43206 66.4497 8.39456 66.3497 8.27373C65.7039 7.47373 64.658 6.91123 63.4747 6.91123C61.1372 6.91123 59.3247 8.7404 59.3247 11.3362C59.3247 13.9154 61.1372 15.7612 63.4747 15.7612C64.6622 15.7612 65.708 15.2112 66.3497 14.3987C66.4497 14.2737 66.6205 14.2404 66.7622 14.3154L67.3789 14.6529C67.5372 14.7404 67.5747 14.9487 67.4622 15.0862C66.5622 16.1862 65.3039 16.9696 63.4747 16.9696C60.3872 16.9654 57.9205 14.6821 57.9205 11.3321Z" fill="#576081"/>
<path d="M10.9023 21.957C16.7704 21.957 21.5273 17.2001 21.5273 11.332C21.5273 5.464 16.7704 0.707031 10.9023 0.707031C5.03432 0.707031 0.277344 5.464 0.277344 11.332C0.277344 17.2001 5.03432 21.957 10.9023 21.957Z" fill="#576081"/>
<path d="M8.90885 18.7198C8.90885 18.9698 8.71302 19.1114 8.47135 19.0364C5.25885 18.0114 2.92969 14.9989 2.92969 11.4447C2.92969 7.89058 5.25885 4.87808 8.47135 3.85308C8.71302 3.77808 8.90885 3.91975 8.90885 4.16975V4.78641C8.90885 4.95308 8.77969 5.14891 8.62135 5.20308C6.07969 6.13641 4.25885 8.57808 4.25885 11.4406C4.25885 14.3031 6.07969 16.7447 8.62135 17.6781C8.77969 17.7364 8.90885 17.9281 8.90885 18.0947V18.7198Z" fill="#101020"/>
<path d="M11.5627 16.423C11.5627 16.6064 11.4127 16.7564 11.2294 16.7564H10.5669C10.3836 16.7564 10.2336 16.6064 10.2336 16.423V15.373C8.78356 15.1772 8.07523 14.3647 7.88356 13.2605C7.85023 13.073 8.00023 12.9022 8.1919 12.9022H8.95023C9.10856 12.9022 9.2419 13.0147 9.27523 13.173C9.4169 13.8314 9.79607 14.3355 10.9586 14.3355C11.8169 14.3355 12.4252 13.8564 12.4252 13.1397C12.4252 12.423 12.0669 12.1522 10.8086 11.9439C8.95023 11.6939 8.07106 11.1314 8.07106 9.67305C8.07106 8.54805 8.92106 7.67305 10.2377 7.48555V6.45638C10.2377 6.27305 10.3877 6.12305 10.5711 6.12305H11.2336C11.4169 6.12305 11.5669 6.27305 11.5669 6.45638V7.51471C12.6377 7.70638 13.3169 8.31471 13.5377 9.32305C13.5794 9.51471 13.4294 9.69388 13.2336 9.69388H12.5336C12.3836 9.69388 12.2586 9.59388 12.2127 9.44805C12.0252 8.80638 11.5669 8.53138 10.7711 8.53138C9.8919 8.53138 9.43773 8.95638 9.43773 9.55221C9.43773 10.1814 9.69606 10.498 11.0461 10.6939C12.8711 10.9439 13.8127 11.4647 13.8127 13.0189C13.8127 14.198 12.9377 15.1522 11.5669 15.373V16.423H11.5627V16.423Z" fill="#101020"/>
<path d="M13.334 19.0364C13.0923 19.1114 12.8965 18.9698 12.8965 18.7198V18.1031C12.8965 17.9198 13.009 17.7489 13.184 17.6864C15.7257 16.7531 17.5465 14.3114 17.5465 11.4489C17.5465 8.58644 15.7257 6.14478 13.184 5.21144C13.0257 5.15311 12.8965 4.96144 12.8965 4.79478V4.17811C12.8965 3.92811 13.0923 3.78228 13.334 3.86144C16.5465 4.88644 18.8756 7.89894 18.8756 11.4531C18.8715 14.9989 16.5465 18.0073 13.334 19.0364Z" fill="#101020"/>
</svg>
