<svg width="99" height="26" viewBox="0 0 99 26" fill="none" xmlns="http://www.w3.org/2000/svg">
<path d="M28.0847 14.8411C28.0833 14.928 28.0478 15.0108 27.9862 15.0714C27.9245 15.132 27.8416 15.1654 27.7556 15.1644H21.6934C21.8488 16.6796 22.9735 18.0654 24.5645 18.0654C25.6525 18.0654 26.4572 17.6496 27.0606 16.772C27.0887 16.7258 27.1276 16.6874 27.1739 16.66C27.2201 16.6326 27.2723 16.6171 27.3258 16.6149C27.3657 16.6138 27.4055 16.6209 27.4426 16.6358C27.4797 16.6507 27.5135 16.6731 27.5417 16.7016C27.5699 16.7302 27.5921 16.7643 27.6069 16.8018C27.6217 16.8393 27.6287 16.8794 27.6275 16.9198C27.6278 16.9755 27.6119 17.0301 27.5818 17.0768C26.9692 18.1485 25.7531 18.6751 24.5645 18.6751C22.5255 18.6751 21.0625 16.8274 21.0625 14.8595C21.0625 12.8917 22.5163 11.0439 24.5645 11.0439C26.6126 11.0439 28.0756 12.8732 28.0847 14.8411V14.8411ZM27.4355 14.5547C27.3075 13.0395 26.1554 11.6537 24.5645 11.6537C22.9735 11.6537 21.8488 13.0395 21.6934 14.5547H27.4355Z" fill="#576081"/>
<path d="M35.4558 11.1916C35.5351 11.194 35.6105 11.2268 35.6666 11.2835C35.7227 11.3402 35.7552 11.4164 35.7575 11.4965C35.7587 11.5369 35.7516 11.577 35.7369 11.6145C35.7221 11.652 35.6999 11.6861 35.6717 11.7146C35.6434 11.7432 35.6097 11.7656 35.5726 11.7805C35.5355 11.7954 35.4957 11.8025 35.4558 11.8014H33.8282V18.2593C33.8275 18.3399 33.7955 18.417 33.7391 18.474C33.6826 18.5311 33.6063 18.5634 33.5265 18.5641C33.4472 18.5618 33.3718 18.5289 33.3157 18.4723C33.2596 18.4156 33.2271 18.3394 33.2248 18.2593V11.8014H31.6612C31.6213 11.8025 31.5816 11.7954 31.5444 11.7805C31.5073 11.7656 31.4736 11.7432 31.4453 11.7146C31.4171 11.6861 31.3949 11.652 31.3801 11.6145C31.3654 11.577 31.3584 11.5369 31.3595 11.4965C31.3602 11.4159 31.3922 11.3387 31.4487 11.2817C31.5051 11.2247 31.5814 11.1924 31.6612 11.1916H33.2248V8.83575C33.2249 8.75769 33.2526 8.68224 33.3029 8.62297C33.3532 8.5637 33.4227 8.52449 33.4991 8.5124C33.5417 8.50667 33.5851 8.51032 33.6263 8.52309C33.6674 8.53587 33.7053 8.55747 33.7375 8.58641C33.7696 8.61536 33.7951 8.65097 33.8124 8.69081C33.8296 8.73066 33.8382 8.77379 33.8374 8.81727V11.1916H35.4558Z" fill="#576081"/>
<path d="M45.3763 14.3139V18.2219C45.374 18.302 45.3415 18.3782 45.2854 18.4349C45.2293 18.4916 45.1539 18.5245 45.0746 18.5268C45.0346 18.5279 44.9949 18.5208 44.9578 18.5059C44.9206 18.491 44.8869 18.4686 44.8587 18.44C44.8304 18.4115 44.8082 18.3774 44.7935 18.3399C44.7787 18.3024 44.7717 18.2623 44.7728 18.2219V14.3139C44.7728 12.9928 44.0322 11.6809 42.5784 11.6809C40.7131 11.6809 39.9085 13.3254 40.0182 15.0161C40.0182 15.0623 40.0365 15.2563 40.0365 15.284V18.2127C40.0363 18.2907 40.0086 18.3662 39.9583 18.4255C39.9081 18.4847 39.8385 18.5239 39.7622 18.536C39.7195 18.5417 39.6761 18.5381 39.635 18.5253C39.5939 18.5126 39.5559 18.491 39.5238 18.462C39.4917 18.4331 39.4661 18.3974 39.4489 18.3576C39.4316 18.3178 39.4231 18.2746 39.4239 18.2311V5.38007C39.4246 5.29944 39.4566 5.22231 39.513 5.16529C39.5695 5.10827 39.6458 5.07592 39.7256 5.0752C39.8049 5.07752 39.8803 5.11039 39.9364 5.16707C39.9925 5.22375 40.025 5.29995 40.0273 5.38007V12.6417C40.5485 11.6994 41.4812 11.0619 42.5692 11.0619C44.3614 11.0619 45.3763 12.6417 45.3763 14.3139Z" fill="#576081"/>
<path d="M56.2664 14.8411C56.2649 14.928 56.2295 15.0108 56.1678 15.0714C56.1061 15.132 56.0232 15.1654 55.9372 15.1644H49.875C50.0305 16.6796 51.1551 18.0654 52.7461 18.0654C53.8342 18.0654 54.6388 17.6496 55.2423 16.772C55.2704 16.7258 55.3093 16.6874 55.3555 16.66C55.4017 16.6326 55.4539 16.6171 55.5074 16.6149C55.5474 16.6138 55.5871 16.6209 55.6242 16.6358C55.6614 16.6507 55.6951 16.6731 55.7233 16.7016C55.7516 16.7302 55.7738 16.7643 55.7885 16.8018C55.8033 16.8393 55.8103 16.8794 55.8092 16.9198C55.8094 16.9755 55.7935 17.0301 55.7635 17.0768C55.1509 18.1485 53.9348 18.6751 52.7461 18.6751C50.7071 18.6751 49.2441 16.8274 49.2441 14.8595C49.2441 12.8917 50.698 11.0439 52.7461 11.0439C54.776 11.0439 56.2572 12.8732 56.2664 14.8411V14.8411ZM55.608 14.5547C55.48 13.0395 54.3279 11.6537 52.737 11.6537C51.146 11.6537 50.0213 13.0395 49.8659 14.5547H55.608Z" fill="#576081"/>
<path d="M63.7181 11.4778C63.7239 11.5598 63.6974 11.6408 63.6442 11.7032C63.5911 11.7655 63.5158 11.804 63.4347 11.8104C61.6517 12.0783 60.847 13.5473 60.847 15.2564V18.1851C60.8469 18.2632 60.8192 18.3386 60.7689 18.3979C60.7186 18.4572 60.6491 18.4964 60.5727 18.5085C60.5301 18.5142 60.4867 18.5106 60.4455 18.4978C60.4044 18.485 60.3665 18.4634 60.3344 18.4345C60.3022 18.4055 60.2767 18.3699 60.2594 18.3301C60.2422 18.2902 60.2337 18.2471 60.2344 18.2036V11.524C60.2346 11.4459 60.2623 11.3705 60.3126 11.3112C60.3628 11.2519 60.4324 11.2127 60.5087 11.2006C60.5514 11.1949 60.5948 11.1986 60.6359 11.2113C60.6771 11.2241 60.715 11.2457 60.7471 11.2747C60.7792 11.3036 60.8048 11.3392 60.822 11.3791C60.8393 11.4189 60.8478 11.462 60.847 11.5055V12.8636C61.3499 12.0044 62.3466 11.1914 63.3889 11.1914C63.5444 11.1914 63.7181 11.3023 63.7181 11.4778Z" fill="#576081"/>
<path d="M73.6843 14.8411C73.6829 14.928 73.6475 15.0108 73.5858 15.0714C73.5241 15.132 73.4412 15.1654 73.3552 15.1644H67.293C67.4485 16.6796 68.5731 18.0654 70.1641 18.0654C71.2522 18.0654 72.0568 17.6496 72.6603 16.772C72.6884 16.7258 72.7272 16.6874 72.7735 16.66C72.8197 16.6326 72.8719 16.6171 72.9254 16.6149C72.9654 16.6138 73.0051 16.6209 73.0422 16.6358C73.0793 16.6507 73.1131 16.6731 73.1413 16.7016C73.1696 16.7302 73.1917 16.7643 73.2065 16.8018C73.2213 16.8393 73.2283 16.8794 73.2272 16.9198C73.2274 16.9755 73.2115 17.0301 73.1814 17.0768C72.5688 18.1485 71.3527 18.6751 70.1641 18.6751C68.1251 18.6751 66.6621 16.8274 66.6621 14.8595C66.6621 12.8917 68.1159 11.0439 70.1641 11.0439C72.2122 11.0439 73.6752 12.8732 73.6843 14.8411V14.8411ZM73.0351 14.5547C72.9071 13.0395 71.7551 11.6537 70.1641 11.6537C68.5731 11.6537 67.4485 13.0395 67.293 14.5547H73.0351Z" fill="#576081"/>
<path d="M83.4855 11.5522V18.2595C83.4832 18.3397 83.4507 18.4159 83.3946 18.4725C83.3385 18.5292 83.2631 18.5621 83.1838 18.5644C83.1439 18.5656 83.1041 18.5585 83.067 18.5435C83.0299 18.5286 82.9962 18.5062 82.9679 18.4777C82.9397 18.4491 82.9175 18.4151 82.9027 18.3775C82.888 18.34 82.8809 18.2999 82.8821 18.2595V16.9846C82.3792 17.9916 81.4923 18.7215 80.3585 18.7215C78.5572 18.7215 77.5605 17.1416 77.5605 15.4694V11.543C77.5613 11.4623 77.5933 11.3852 77.6497 11.3282C77.7061 11.2712 77.7825 11.2388 77.8623 11.2381C77.9416 11.2404 78.017 11.2733 78.0731 11.33C78.1292 11.3866 78.1617 11.4628 78.164 11.543V15.4694C78.164 16.7906 78.9046 18.1025 80.3585 18.1025C82.3975 18.1025 82.8821 16.1716 82.8821 14.0374V11.5337C82.8828 11.4843 82.8951 11.4358 82.9182 11.3922C82.9412 11.3486 82.9743 11.3112 83.0146 11.2831C83.0549 11.2551 83.1012 11.2372 83.1498 11.231C83.1983 11.2248 83.2476 11.2304 83.2935 11.2473C83.351 11.2743 83.3996 11.3174 83.4337 11.3714C83.4677 11.4254 83.4857 11.4882 83.4855 11.5522V11.5522Z" fill="#576081"/>
<path d="M98.8385 14.2871V18.2135C98.8362 18.2936 98.8036 18.3698 98.7475 18.4265C98.6914 18.4832 98.616 18.5161 98.5367 18.5184C98.4968 18.5195 98.457 18.5124 98.4199 18.4975C98.3828 18.4826 98.3491 18.4602 98.3208 18.4317C98.2926 18.4031 98.2704 18.369 98.2556 18.3315C98.2409 18.294 98.2339 18.2539 98.235 18.2135V14.2871C98.235 12.9659 97.4944 11.6725 96.0405 11.6725C94.2118 11.6725 93.5169 13.6496 93.5169 15.1832V18.2135C93.5146 18.2936 93.4821 18.3698 93.426 18.4265C93.3699 18.4832 93.2945 18.5161 93.2152 18.5184C93.1753 18.5195 93.1355 18.5124 93.0984 18.4975C93.0613 18.4826 93.0276 18.4602 92.9993 18.4317C92.9711 18.4031 92.9489 18.369 92.9341 18.3315C92.9194 18.294 92.9123 18.2539 92.9135 18.2135V14.2871C92.9135 12.9659 92.1728 11.6725 90.719 11.6725C88.872 11.6725 88.1131 13.1415 88.1771 15.1001C88.1771 15.1463 88.1954 15.2294 88.1771 15.2571V18.2043C88.177 18.2823 88.1493 18.3578 88.099 18.4171C88.0487 18.4763 87.9791 18.5155 87.9028 18.5276C87.8601 18.5334 87.8168 18.5297 87.7756 18.5169C87.7345 18.5042 87.6966 18.4826 87.6644 18.4536C87.6323 18.4247 87.6068 18.3891 87.5895 18.3492C87.5723 18.3094 87.5637 18.2662 87.5645 18.2228V11.5247C87.5647 11.4466 87.5924 11.3712 87.6426 11.3119C87.6929 11.2526 87.7625 11.2134 87.8388 11.2013C87.8815 11.1956 87.9249 11.1992 87.966 11.212C88.0071 11.2248 88.0451 11.2464 88.0772 11.2753C88.1093 11.3043 88.1349 11.3399 88.1521 11.3797C88.1694 11.4196 88.1779 11.4627 88.1771 11.5062V12.6241C88.6983 11.6817 89.6309 11.0627 90.719 11.0627C91.9534 11.0627 92.9135 11.8573 93.3066 13.0121C93.8095 11.8665 94.7879 11.0627 96.0405 11.0627C97.8235 11.0627 98.8385 12.6241 98.8385 14.2871Z" fill="#576081"/>
<path opacity="0.6" d="M7.67896 9.70459L0.0898438 13.1876L7.67896 17.7238L15.2772 13.1876L7.67896 9.70459Z" fill="#576081"/>
<path d="M0.0898438 13.187L7.67896 17.7232V0.456055L0.0898438 13.187Z" fill="#576081"/>
<path d="M7.67773 0.456055V17.7232L15.276 13.187L7.67773 0.456055Z" fill="#576081"/>
<path d="M0.0898438 14.6467L7.67896 25.456V19.1737L0.0898438 14.6467Z" fill="#576081"/>
<path d="M7.67773 19.1737V25.456L15.276 14.6467L7.67773 19.1737Z" fill="#576081"/>
</svg>
