<svg width="80" height="15" viewBox="0 0 80 15" fill="none" xmlns="http://www.w3.org/2000/svg">
<path d="M27.3364 8.155H30.292C30.7076 8.155 31.0444 8.49481 31.0444 8.90974C31.0444 9.32825 30.7076 9.66449 30.292 9.66449H26.7274C26.6701 9.66449 26.6163 9.68595 26.5769 9.72172L25.5021 10.6482C25.3373 10.7912 25.4377 11.0595 25.6526 11.0595H30.1129C30.1129 11.0595 30.1165 11.0595 30.1165 11.0559C30.1165 11.0524 30.1201 11.0524 30.1201 11.0524C30.1774 11.0559 30.2311 11.0595 30.2884 11.0595C31.4707 11.0595 32.4308 10.0973 32.4308 8.90974C32.4308 7.783 31.5674 6.85656 30.464 6.76713C30.464 6.76713 30.4604 6.76713 30.4604 6.76356C30.4604 6.75998 30.4604 6.75998 30.4568 6.75998H27.2755C26.8599 6.75998 26.5232 6.42016 26.5232 6.00523C26.5232 5.58673 26.8599 5.25049 27.2755 5.25049H30.833C30.8903 5.25049 30.9476 5.22903 30.9906 5.18968L31.9901 4.26324C32.1478 4.11659 32.0439 3.85547 31.8325 3.85547H27.3364C27.3185 3.85547 27.297 3.85547 27.2791 3.85547C26.0968 3.85547 25.1367 4.81768 25.1367 6.00523C25.1367 7.19279 26.0968 8.155 27.2791 8.155C27.297 8.155 27.3149 8.155 27.3364 8.155Z" fill="#576081"/>
<path d="M44.5376 3.85172C44.4086 3.85172 44.3047 3.95545 44.3047 4.0878V10.8268C44.3047 10.9556 44.4086 11.0629 44.5376 11.0629H49.9472C50.0117 11.0629 50.0726 11.0343 50.1192 10.9878L50.7963 10.2617C50.936 10.1114 50.8321 9.86463 50.6243 9.86463H45.9025C45.7735 9.86463 45.6696 9.7609 45.6696 9.62855V4.08423C45.6696 3.95545 45.5657 3.84814 45.4368 3.84814H44.5376V3.85172Z" fill="#576081"/>
<path fill-rule="evenodd" clip-rule="evenodd" d="M35.8747 3.85156C35.8747 3.85514 35.8747 3.85514 35.8747 3.85156C35.1832 3.88376 34.6279 4.43819 34.5957 5.12855V9.66058C34.5957 9.67847 34.5957 9.69993 34.5957 9.71781C34.5957 10.4368 35.1617 11.0234 35.8747 11.052H40.7828C41.4921 11.0198 42.0617 10.4332 42.0617 9.71781C42.0617 9.69993 42.0617 9.67847 42.0617 9.66058V5.13212C42.0331 4.44176 41.4778 3.88376 40.7864 3.85514H35.8747V3.85156ZM36.7918 5.13212C36.7882 5.13212 36.7882 5.13212 36.7918 5.13212C36.3583 5.15001 36.0108 5.50055 35.9929 5.93694V8.7878C35.9929 8.79853 35.9929 8.81284 35.9929 8.82357C35.9929 9.27427 36.3476 9.64628 36.7918 9.66416H39.8692C40.3135 9.64628 40.6681 9.27427 40.6681 8.82357C40.6681 8.81284 40.6681 8.79853 40.6681 8.7878V5.93694C40.6502 5.50055 40.3027 5.15358 39.8692 5.13212H36.7918Z" fill="#576081"/>
<path fill-rule="evenodd" clip-rule="evenodd" d="M58.6596 10.8264C58.6596 10.9551 58.7635 11.0624 58.8925 11.0624H59.8096C59.9386 11.0624 60.0425 10.9587 60.0425 10.8264V5.24984C60.0425 5.23196 60.0425 5.2105 60.0425 5.19261C60.0425 4.47364 59.48 3.88701 58.7778 3.8584H54.0668C54.0489 3.8584 54.0274 3.8584 54.0095 3.8584C53.2786 3.8584 52.6875 4.45575 52.6875 5.19619C52.6875 5.21407 52.6875 5.23554 52.6875 5.25342V10.8299C52.6875 10.9587 52.7914 11.066 52.9204 11.066H53.8375C53.9665 11.066 54.0704 10.9623 54.0704 10.8299V8.50848C54.0704 8.3797 54.1743 8.27239 54.3032 8.27239H58.4375C58.5665 8.27239 58.6704 8.37613 58.6704 8.50848V10.8264H58.6596ZM54.0632 6.98826V5.82932C54.0632 5.37862 54.425 5.01376 54.8693 5.01376H57.8571C58.3014 5.01376 58.6632 5.37862 58.6632 5.82932V6.98826C58.6632 7.11703 58.5593 7.22434 58.4303 7.22434H54.2961C54.1671 7.22434 54.0632 7.12061 54.0632 6.98826Z" fill="#576081"/>
<path fill-rule="evenodd" clip-rule="evenodd" d="M78.0234 11.0631C77.8944 11.0631 77.7905 10.9594 77.7905 10.827V8.50555C77.7905 8.37677 77.6866 8.26947 77.5576 8.26947H73.3768C73.2478 8.26947 73.1439 8.3732 73.1439 8.50555V10.827C73.1439 10.9558 73.04 11.0631 72.9111 11.0631H71.9868C71.8578 11.0631 71.7539 10.9594 71.7539 10.827V5.25049C71.7539 5.23261 71.7539 5.21115 71.7539 5.19326C71.7539 4.4564 72.3522 3.85547 73.0902 3.85547C73.1081 3.85547 73.1296 3.85547 73.1475 3.85547H77.9087C78.6181 3.88766 79.1877 4.47429 79.1877 5.18968C79.1877 5.20757 79.1877 5.22903 79.1877 5.24692V10.8234C79.1877 10.9522 79.0838 11.0595 78.9548 11.0595H78.0234V11.0631ZM73.1439 5.82996V6.9889C73.1439 7.11768 73.2478 7.22499 73.3768 7.22499H77.5576C77.6866 7.22499 77.7905 7.12125 77.7905 6.9889V5.82996C77.7905 5.37926 77.4251 5.01441 76.9773 5.01441H73.9572C73.5058 5.01441 73.1439 5.37926 73.1439 5.82996Z" fill="#576081"/>
<path d="M63.4971 3.85156C63.5651 3.85156 63.6296 3.88018 63.6726 3.93383L67.7854 8.83072C67.9251 8.99526 68.1938 8.89511 68.1938 8.67691V4.08764C68.1938 3.95887 68.2977 3.85156 68.4267 3.85156H69.3438C69.4728 3.85156 69.5767 3.9553 69.5767 4.08764V10.8267C69.5767 10.9555 69.4728 11.0628 69.3438 11.0628H68.2045C68.201 11.0628 68.1974 11.0592 68.1974 11.0556C68.1974 11.052 68.1974 11.052 68.1938 11.0485L64.0094 6.18733C63.8697 6.02279 63.601 6.12652 63.601 6.34114V10.8303C63.601 10.959 63.4971 11.0663 63.3681 11.0663H62.4438C62.3148 11.0663 62.2109 10.9626 62.2109 10.8303V4.08764C62.2109 3.95887 62.3148 3.85156 62.4438 3.85156H63.4971V3.85156Z" fill="#576081"/>
<path d="M3.80684 11.3095C3.92148 11.195 4.07553 11.1306 4.23675 11.1306H19.1581C19.4304 11.1306 19.5665 11.4597 19.373 11.6493L16.4246 14.5931C16.31 14.7076 16.1559 14.772 15.9947 14.772H1.07335C0.80108 14.772 0.664943 14.4429 0.858401 14.2533L3.80684 11.3095Z" fill="#576081"/>
<path d="M3.80684 0.321427C3.92148 0.206964 4.07553 0.142578 4.23675 0.142578H19.1581C19.4304 0.142578 19.5665 0.47166 19.373 0.661241L16.4246 3.60152C16.31 3.71598 16.1559 3.78037 15.9947 3.78037H1.07335C0.80108 3.78037 0.664943 3.45129 0.858401 3.26171L3.80684 0.321427Z" fill="#576081"/>
<path d="M16.4246 5.77968C16.31 5.66522 16.1559 5.60083 15.9947 5.60083H1.07335C0.80108 5.60083 0.664943 5.92991 0.858401 6.11949L3.80684 9.05977C3.92148 9.17423 4.07553 9.23862 4.23675 9.23862H19.1581C19.4304 9.23862 19.5665 8.90954 19.373 8.71996L16.4246 5.77968Z" fill="#576081"/>
</svg>
