<svg width="22" height="23" viewBox="0 0 22 23" fill="none" xmlns="http://www.w3.org/2000/svg">
<g clip-path="url(#clip0_435_2674)">
<path d="M18.6229 4.56979C17.2204 3.93838 15.7171 3.47169 14.145 3.20631C14.131 3.20363 14.1165 3.20536 14.1035 3.21126C14.0905 3.21716 14.0797 3.22695 14.0726 3.23926C13.8801 3.57692 13.6656 4.01708 13.5152 4.36481C11.8479 4.11612 10.1528 4.11612 8.48548 4.36481C8.31803 3.97943 8.12921 3.60367 7.91989 3.23926C7.9128 3.2268 7.90206 3.21679 7.88912 3.21058C7.87619 3.20436 7.86166 3.20224 7.84748 3.20448C6.27631 3.46986 4.77298 3.93655 3.36956 4.56888C3.35749 4.57393 3.34725 4.58255 3.34023 4.59358C0.487559 8.7801 -0.294358 12.8632 0.0897257 16.8951C0.0907945 16.9049 0.093865 16.9145 0.0987502 16.9232C0.103636 16.9318 0.110233 16.9394 0.118142 16.9454C1.78317 18.1555 3.64028 19.0774 5.61173 19.6724C5.62547 19.6766 5.64017 19.6766 5.6539 19.6723C5.66764 19.6681 5.67978 19.6598 5.68873 19.6486C6.11295 19.0822 6.48888 18.4813 6.81256 17.8523C6.81705 17.8437 6.81964 17.8342 6.82015 17.8245C6.82066 17.8148 6.81908 17.8051 6.81552 17.7961C6.81195 17.7871 6.80649 17.7789 6.7995 17.7722C6.7925 17.7655 6.78414 17.7603 6.77498 17.7571C6.18281 17.5345 5.60905 17.2658 5.05898 16.9536C5.04909 16.948 5.04076 16.94 5.03474 16.9304C5.02871 16.9207 5.02517 16.9098 5.02445 16.8984C5.02372 16.8871 5.02583 16.8757 5.03057 16.8654C5.03532 16.8551 5.04256 16.8461 5.05164 16.8393C5.16714 16.7542 5.28264 16.6654 5.39264 16.5766C5.40254 16.5686 5.41447 16.5636 5.42709 16.5619C5.43972 16.5603 5.45254 16.5622 5.46414 16.5675C9.06389 18.1817 12.9625 18.1817 16.5201 16.5675C16.5317 16.5619 16.5446 16.5598 16.5575 16.5612C16.5703 16.5627 16.5824 16.5677 16.5925 16.5757C16.7025 16.6654 16.8171 16.7542 16.9335 16.8393C16.9426 16.846 16.95 16.8548 16.9549 16.8651C16.9598 16.8753 16.9621 16.8866 16.9615 16.8979C16.961 16.9093 16.9576 16.9203 16.9518 16.93C16.9459 16.9397 16.9377 16.9478 16.928 16.9536C16.3798 17.2684 15.8096 17.5347 15.2111 17.7562C15.2019 17.7595 15.1935 17.7648 15.1865 17.7716C15.1795 17.7784 15.174 17.7866 15.1705 17.7957C15.1669 17.8048 15.1653 17.8146 15.1659 17.8243C15.1664 17.8341 15.169 17.8436 15.1735 17.8523C15.5035 18.4809 15.8811 19.0794 16.2964 19.6477C16.305 19.6593 16.3171 19.668 16.3308 19.6726C16.3446 19.6772 16.3595 19.6774 16.3734 19.6733C18.3482 19.08 20.2084 18.1577 21.8752 16.9454C21.8834 16.9397 21.8902 16.9324 21.8952 16.9239C21.9003 16.9153 21.9035 16.9058 21.9046 16.896C22.3629 12.2345 21.1364 8.18438 18.6513 4.59541C18.6452 4.58375 18.6351 4.57466 18.6229 4.56979ZM7.35064 14.4399C6.26714 14.4399 5.37339 13.4617 5.37339 12.262C5.37339 11.0614 6.24973 10.0841 7.35064 10.0841C8.45981 10.0841 9.34531 11.0696 9.32789 12.262C9.32789 13.4626 8.45156 14.4399 7.35064 14.4399V14.4399ZM14.6611 14.4399C13.5766 14.4399 12.6838 13.4617 12.6838 12.262C12.6838 11.0614 13.5592 10.0841 14.6611 10.0841C15.7702 10.0841 16.6557 11.0696 16.6383 12.262C16.6383 13.4626 15.7711 14.4399 14.6611 14.4399V14.4399Z" fill="#576081"/>
</g>
<defs>
<clipPath id="clip0_435_2674">
<rect width="22" height="21.962" fill="white" transform="translate(-0.00146484 0.459229)"/>
</clipPath>
</defs>
</svg>
