<svg width="37" height="36" viewBox="0 0 37 36" fill="none" xmlns="http://www.w3.org/2000/svg">
<path d="M22.5577 10.4358C25.0328 10.5346 26.1878 11.7206 26.3198 14.1914C26.3528 15.1468 26.3858 15.4433 26.3858 17.8812C26.3858 20.319 26.3858 20.6155 26.3198 21.5709C26.2208 24.0417 25.0658 25.1948 22.5577 25.3266C21.6006 25.3595 21.3036 25.3925 18.8615 25.3925C16.4195 25.3925 16.1225 25.3925 15.1654 25.3266C12.6903 25.2277 11.5353 24.0417 11.4033 21.5709C11.3703 20.6155 11.3373 20.319 11.3373 17.8812C11.3373 15.4433 11.3373 15.1468 11.4033 14.1914C11.5023 11.7206 12.6573 10.5675 15.1654 10.4358C16.1225 10.4028 16.4195 10.3699 18.8615 10.3699C21.3036 10.3699 21.6006 10.3699 22.5577 10.4358ZM18.8615 8.72266C16.3865 8.72266 16.0564 8.72266 15.0994 8.78854C11.7663 8.95327 9.91822 10.7652 9.78621 14.0926C9.75321 15.0809 9.72021 15.3774 9.72021 17.8482C9.72021 20.319 9.72021 20.6485 9.78621 21.6039C9.95122 24.9312 11.7663 26.7761 15.0994 26.9079C16.0894 26.9408 16.3865 26.9738 18.8615 26.9738C21.3366 26.9738 21.6666 26.9738 22.6237 26.9079C25.9568 26.7432 27.8049 24.9312 27.9369 21.6039C27.9699 20.6155 28.0029 20.319 28.0029 17.8482C28.0029 15.3774 28.0029 15.048 27.9369 14.0926C27.7719 10.7652 25.9568 8.92032 22.6237 8.78854C21.6666 8.72266 21.3366 8.72266 18.8615 8.72266ZM18.8615 13.1701C16.2544 13.1701 14.1754 15.2786 14.1754 17.8482C14.1754 20.4508 16.2875 22.5263 18.8615 22.5263C21.4686 22.5263 23.5477 20.4179 23.5477 17.8482C23.5477 15.2786 21.4356 13.1701 18.8615 13.1701ZM18.8615 20.912C17.1785 20.912 15.8254 19.5613 15.8254 17.8812C15.8254 16.201 17.1785 14.8503 18.8615 14.8503C20.5446 14.8503 21.8977 16.201 21.8977 17.8812C21.8977 19.5284 20.5446 20.912 18.8615 20.912ZM23.7457 11.8853C23.1517 11.8853 22.6567 12.3795 22.6567 12.9725C22.6567 13.5655 23.1517 14.0596 23.7457 14.0596C24.3398 14.0596 24.8348 13.5655 24.8348 12.9725C24.8348 12.3795 24.3398 11.8853 23.7457 11.8853Z" fill="#576081"/>
</svg>
