<svg width="23" height="21" viewBox="0 0 23 21" fill="none" xmlns="http://www.w3.org/2000/svg">
<path d="M13.4597 11.6179C13.3449 11.6179 12.7018 11.6636 11.2779 11.6636C10.1526 11.6636 9.34879 11.6408 9.07319 11.6179C4.70967 11.435 1.47147 10.6804 1.47147 9.76584C1.47147 8.85124 4.73263 8.09669 9.07319 7.91377V10.8634C9.34879 10.8862 10.1756 10.932 11.3009 10.932C12.6559 10.932 13.3219 10.8862 13.4597 10.8634V7.91377C17.8002 8.09669 21.0614 8.85124 21.0614 9.76584C21.0614 10.6576 17.8002 11.4121 13.4597 11.6179ZM13.4597 7.59366V4.96418H19.5227V0.939941H2.98722V4.96418H9.05023V7.59366C4.11255 7.82231 0.415039 8.78264 0.415039 9.94876C0.415039 11.1149 4.13552 12.0752 9.05023 12.3039V20.7639H13.4367V12.3039C18.3974 12.0981 22.0949 11.1377 22.0949 9.97162C22.0949 8.80551 18.3974 7.82231 13.4597 7.59366Z" fill="#576081"/>
</svg>
