<svg width="36" height="36" viewBox="0 0 36 36" fill="none" xmlns="http://www.w3.org/2000/svg">
<path d="M6.65137 19.0535C8.73429 17.9099 11.0701 16.9445 13.2423 15.9791C16.9916 14.4047 20.7409 12.8452 24.5497 11.4045C25.2936 11.1521 26.6177 10.9144 26.7516 12.0135C26.6772 13.5581 26.3945 15.1028 26.1862 16.6326C25.6804 20.0189 25.0853 23.3904 24.505 26.7619C24.3116 27.8907 22.8982 28.4699 21.9906 27.7422C19.8184 26.2866 17.6462 24.8311 15.5038 23.3459C14.8045 22.6329 15.4592 21.6081 16.0841 21.1031C17.8694 19.3506 19.7589 17.8505 21.455 16.0088C21.9162 14.9097 20.5623 15.8306 20.116 16.1127C17.676 17.7911 15.2955 19.5734 12.7067 21.0586C11.3975 21.7864 9.85015 21.1626 8.54088 20.7615C7.36551 20.2863 5.63966 19.7961 6.65137 19.0535Z" fill="#576081"/>
</svg>
