<svg width="37" height="36" viewBox="0 0 37 36" fill="none" xmlns="http://www.w3.org/2000/svg">
<path d="M28.0652 12.9392C27.4052 13.2357 26.6791 13.4333 25.9201 13.5322C26.7121 13.0709 27.3062 12.3462 27.5702 11.4567C26.8441 11.8849 26.0521 12.2144 25.1941 12.3791C24.5011 11.6543 23.544 11.1931 22.455 11.1931C20.0459 11.1931 18.2638 13.4663 18.7918 15.8053C15.6567 15.6406 12.9176 14.1581 11.0366 11.8849C10.0465 13.5651 10.5415 15.7724 12.1916 16.8925C11.5646 16.8595 11.0036 16.6948 10.4755 16.4313C10.4425 18.1773 11.6966 19.7916 13.4787 20.154C12.9506 20.2857 12.3566 20.3187 11.7956 20.2198C12.2576 21.7023 13.6437 22.7895 15.2937 22.8224C13.7097 24.0743 11.7296 24.6014 9.74951 24.3708C11.3996 25.425 13.3796 26.051 15.4917 26.051C22.455 26.051 26.4151 20.1869 26.1511 14.9158C26.9101 14.3558 27.5372 13.6969 28.0652 12.9392Z" fill="#576081"/>
</svg>
